<mxfile host="app.diagrams.net" modified="2024-02-07T16:52:12.964Z" agent="Mozilla/5.0 (Windows NT 10.0; Win64; x64) AppleWebKit/537.36 (KHTML, like Gecko) Chrome/121.0.0.0 Safari/537.36" etag="krSqSrlzQzLTLW_Pr_iM" version="23.0.2" type="github">
  <diagram name="Page-1" id="7jnju3X13NSetyP83VK7">
    <mxGraphModel dx="1560" dy="790" grid="1" gridSize="10" guides="1" tooltips="1" connect="1" arrows="1" fold="1" page="1" pageScale="1" pageWidth="850" pageHeight="1100" math="0" shadow="0">
      <root>
        <mxCell id="0" />
        <mxCell id="1" parent="0" />
        <mxCell id="PZjx9glAYog10NwFBfw6-6" style="edgeStyle=orthogonalEdgeStyle;rounded=0;orthogonalLoop=1;jettySize=auto;html=1;entryX=0;entryY=0.5;entryDx=0;entryDy=0;" edge="1" parent="1" source="PZjx9glAYog10NwFBfw6-1" target="PZjx9glAYog10NwFBfw6-2">
          <mxGeometry relative="1" as="geometry" />
        </mxCell>
        <mxCell id="PZjx9glAYog10NwFBfw6-1" value="Applicant&lt;br&gt;Website" style="shape=process;whiteSpace=wrap;html=1;backgroundOutline=1;" vertex="1" parent="1">
          <mxGeometry x="230" y="60" width="120" height="60" as="geometry" />
        </mxCell>
        <mxCell id="PZjx9glAYog10NwFBfw6-11" value="" style="edgeStyle=orthogonalEdgeStyle;rounded=0;orthogonalLoop=1;jettySize=auto;html=1;" edge="1" parent="1" source="PZjx9glAYog10NwFBfw6-2" target="PZjx9glAYog10NwFBfw6-10">
          <mxGeometry relative="1" as="geometry" />
        </mxCell>
        <mxCell id="PZjx9glAYog10NwFBfw6-2" value="Submit Application" style="rounded=1;whiteSpace=wrap;html=1;" vertex="1" parent="1">
          <mxGeometry x="440" y="60" width="120" height="60" as="geometry" />
        </mxCell>
        <mxCell id="PZjx9glAYog10NwFBfw6-4" style="edgeStyle=orthogonalEdgeStyle;rounded=0;orthogonalLoop=1;jettySize=auto;html=1;entryX=0;entryY=0.5;entryDx=0;entryDy=0;" edge="1" parent="1" source="PZjx9glAYog10NwFBfw6-3" target="PZjx9glAYog10NwFBfw6-1">
          <mxGeometry relative="1" as="geometry" />
        </mxCell>
        <mxCell id="PZjx9glAYog10NwFBfw6-3" value="Applicant" style="shape=umlActor;verticalLabelPosition=bottom;verticalAlign=top;html=1;outlineConnect=0;" vertex="1" parent="1">
          <mxGeometry x="60" y="60" width="30" height="60" as="geometry" />
        </mxCell>
        <mxCell id="PZjx9glAYog10NwFBfw6-7" value="to : HR" style="verticalLabelPosition=bottom;shadow=0;dashed=0;align=center;html=1;verticalAlign=top;strokeWidth=1;shape=mxgraph.mockup.misc.mail2;strokeColor=#999999;" vertex="1" parent="1">
          <mxGeometry x="760" y="75" width="40" height="30" as="geometry" />
        </mxCell>
        <mxCell id="PZjx9glAYog10NwFBfw6-12" value="" style="edgeStyle=orthogonalEdgeStyle;rounded=0;orthogonalLoop=1;jettySize=auto;html=1;" edge="1" parent="1" source="PZjx9glAYog10NwFBfw6-10" target="PZjx9glAYog10NwFBfw6-7">
          <mxGeometry relative="1" as="geometry" />
        </mxCell>
        <mxCell id="PZjx9glAYog10NwFBfw6-10" value="application PDF" style="ellipse;whiteSpace=wrap;html=1;aspect=fixed;" vertex="1" parent="1">
          <mxGeometry x="610" y="50" width="80" height="80" as="geometry" />
        </mxCell>
        <mxCell id="PZjx9glAYog10NwFBfw6-13" style="edgeStyle=orthogonalEdgeStyle;rounded=0;orthogonalLoop=1;jettySize=auto;html=1;entryX=0;entryY=0.5;entryDx=0;entryDy=0;" edge="1" parent="1" source="PZjx9glAYog10NwFBfw6-14" target="PZjx9glAYog10NwFBfw6-16">
          <mxGeometry relative="1" as="geometry" />
        </mxCell>
        <mxCell id="PZjx9glAYog10NwFBfw6-14" value="HR&lt;br&gt;Website" style="shape=process;whiteSpace=wrap;html=1;backgroundOutline=1;" vertex="1" parent="1">
          <mxGeometry x="225" y="280" width="120" height="60" as="geometry" />
        </mxCell>
        <mxCell id="PZjx9glAYog10NwFBfw6-15" value="" style="edgeStyle=orthogonalEdgeStyle;rounded=0;orthogonalLoop=1;jettySize=auto;html=1;" edge="1" parent="1" source="PZjx9glAYog10NwFBfw6-16" target="PZjx9glAYog10NwFBfw6-21">
          <mxGeometry relative="1" as="geometry" />
        </mxCell>
        <mxCell id="PZjx9glAYog10NwFBfw6-16" value="Invitation" style="rounded=1;whiteSpace=wrap;html=1;" vertex="1" parent="1">
          <mxGeometry x="435" y="280" width="120" height="60" as="geometry" />
        </mxCell>
        <mxCell id="PZjx9glAYog10NwFBfw6-17" style="edgeStyle=orthogonalEdgeStyle;rounded=0;orthogonalLoop=1;jettySize=auto;html=1;entryX=0;entryY=0.5;entryDx=0;entryDy=0;" edge="1" parent="1" source="PZjx9glAYog10NwFBfw6-18" target="PZjx9glAYog10NwFBfw6-14">
          <mxGeometry relative="1" as="geometry" />
        </mxCell>
        <mxCell id="PZjx9glAYog10NwFBfw6-18" value="HR" style="shape=umlActor;verticalLabelPosition=bottom;verticalAlign=top;html=1;outlineConnect=0;" vertex="1" parent="1">
          <mxGeometry x="55" y="280" width="30" height="60" as="geometry" />
        </mxCell>
        <mxCell id="PZjx9glAYog10NwFBfw6-23" value="" style="edgeStyle=orthogonalEdgeStyle;rounded=0;orthogonalLoop=1;jettySize=auto;html=1;" edge="1" parent="1" source="PZjx9glAYog10NwFBfw6-19" target="PZjx9glAYog10NwFBfw6-22">
          <mxGeometry relative="1" as="geometry" />
        </mxCell>
        <mxCell id="PZjx9glAYog10NwFBfw6-19" value="" style="verticalLabelPosition=bottom;shadow=0;dashed=0;align=center;html=1;verticalAlign=top;strokeWidth=1;shape=mxgraph.mockup.misc.mail2;strokeColor=#999999;" vertex="1" parent="1">
          <mxGeometry x="755" y="295" width="40" height="30" as="geometry" />
        </mxCell>
        <mxCell id="PZjx9glAYog10NwFBfw6-20" value="" style="edgeStyle=orthogonalEdgeStyle;rounded=0;orthogonalLoop=1;jettySize=auto;html=1;" edge="1" parent="1" source="PZjx9glAYog10NwFBfw6-21" target="PZjx9glAYog10NwFBfw6-19">
          <mxGeometry relative="1" as="geometry" />
        </mxCell>
        <mxCell id="PZjx9glAYog10NwFBfw6-21" value="auto invitation template" style="ellipse;whiteSpace=wrap;html=1;aspect=fixed;" vertex="1" parent="1">
          <mxGeometry x="605" y="270" width="80" height="80" as="geometry" />
        </mxCell>
        <mxCell id="PZjx9glAYog10NwFBfw6-25" value="" style="edgeStyle=orthogonalEdgeStyle;rounded=0;orthogonalLoop=1;jettySize=auto;html=1;" edge="1" parent="1" source="PZjx9glAYog10NwFBfw6-22" target="PZjx9glAYog10NwFBfw6-24">
          <mxGeometry relative="1" as="geometry" />
        </mxCell>
        <mxCell id="PZjx9glAYog10NwFBfw6-22" value="&lt;br&gt;is&lt;br&gt;Successful" style="rhombus;whiteSpace=wrap;html=1;verticalAlign=top;strokeColor=#999999;shadow=0;dashed=0;strokeWidth=1;" vertex="1" parent="1">
          <mxGeometry x="735" y="380" width="80" height="80" as="geometry" />
        </mxCell>
        <mxCell id="PZjx9glAYog10NwFBfw6-24" value="" style="rounded=1;whiteSpace=wrap;html=1;verticalAlign=top;strokeColor=#999999;shadow=0;dashed=0;strokeWidth=1;" vertex="1" parent="1">
          <mxGeometry x="585" y="390" width="120" height="60" as="geometry" />
        </mxCell>
        <mxCell id="PZjx9glAYog10NwFBfw6-26" value="&lt;span style=&quot;color: rgb(0, 0, 0); font-family: Helvetica; font-size: 12px; font-style: normal; font-variant-ligatures: normal; font-variant-caps: normal; font-weight: 400; letter-spacing: normal; orphans: 2; text-align: center; text-indent: 0px; text-transform: none; widows: 2; word-spacing: 0px; -webkit-text-stroke-width: 0px; background-color: rgb(251, 251, 251); text-decoration-thickness: initial; text-decoration-style: initial; text-decoration-color: initial; float: none; display: inline !important;&quot;&gt;To : Applicant&lt;/span&gt;" style="text;whiteSpace=wrap;html=1;" vertex="1" parent="1">
          <mxGeometry x="740" y="265" width="80" height="30" as="geometry" />
        </mxCell>
      </root>
    </mxGraphModel>
  </diagram>
</mxfile>
